<svg width="21" height="20" viewBox="0 0 21 20" fill="none" xmlns="http://www.w3.org/2000/svg">
<path d="M10.7161 4.87225C7.8778 4.87225 5.58839 7.16166 5.58839 10C5.58839 12.8383 7.8778 15.1277 10.7161 15.1277C13.5545 15.1277 15.8439 12.8383 15.8439 10C15.8439 7.16166 13.5545 4.87225 10.7161 4.87225ZM10.7161 13.3337C8.88193 13.3337 7.38243 11.8387 7.38243 10C7.38243 8.16133 8.87746 6.6663 10.7161 6.6663C12.5548 6.6663 14.0498 8.16133 14.0498 10C14.0498 11.8387 12.5503 13.3337 10.7161 13.3337ZM17.2497 4.6625C17.2497 5.32746 16.7141 5.85853 16.0536 5.85853C15.3887 5.85853 14.8576 5.32299 14.8576 4.6625C14.8576 4.00201 15.3931 3.46647 16.0536 3.46647C16.7141 3.46647 17.2497 4.00201 17.2497 4.6625ZM20.6458 5.87638C20.57 4.27424 20.204 2.85507 19.0303 1.68582C17.8611 0.516568 16.4419 0.150619 14.8398 0.070289C13.1885 -0.0234297 8.23928 -0.0234297 6.58805 0.070289C4.99037 0.146156 3.5712 0.512105 2.39749 1.68136C1.22378 2.85061 0.862289 4.26978 0.781959 5.87192C0.68824 7.52315 0.68824 12.4724 0.781959 14.1236C0.857826 15.7258 1.22378 17.1449 2.39749 18.3142C3.5712 19.4834 4.98591 19.8494 6.58805 19.9297C8.23928 20.0234 13.1885 20.0234 14.8398 19.9297C16.4419 19.8538 17.8611 19.4879 19.0303 18.3142C20.1996 17.1449 20.5655 15.7258 20.6458 14.1236C20.7396 12.4724 20.7396 7.52761 20.6458 5.87638ZM18.5126 15.8953C18.1645 16.7701 17.4907 17.4439 16.6115 17.7965C15.295 18.3186 12.171 18.1981 10.7161 18.1981C9.26126 18.1981 6.13285 18.3142 4.82079 17.7965C3.94608 17.4484 3.2722 16.7745 2.91964 15.8953C2.39749 14.5788 2.51798 11.4549 2.51798 10C2.51798 8.54513 2.40195 5.41671 2.91964 4.10465C3.26773 3.22995 3.94162 2.55606 4.82079 2.2035C6.13731 1.68136 9.26126 1.80185 10.7161 1.80185C12.171 1.80185 15.2994 1.68582 16.6115 2.2035C17.4862 2.5516 18.1601 3.22548 18.5126 4.10465C19.0348 5.42118 18.9143 8.54513 18.9143 10C18.9143 11.4549 19.0348 14.5833 18.5126 15.8953Z" fill="#292929"/>
</svg>
