<svg width="22" height="20" viewBox="0 0 22 20" fill="none" xmlns="http://www.w3.org/2000/svg">
<path d="M5.08421 20V6.50603H0.599092V20H5.08421ZM2.84223 4.66256C4.40627 4.66256 5.37981 3.62638 5.37981 2.3315C5.35067 1.00742 4.40633 0 2.87191 0C1.33773 0 0.334473 1.00744 0.334473 2.3315C0.334473 3.62644 1.30777 4.66256 2.81295 4.66256H2.84223ZM7.56671 20H12.0518V12.4643C12.0518 12.061 12.081 11.6581 12.1994 11.3698C12.5236 10.564 13.2616 9.72949 14.5006 9.72949C16.1236 9.72949 16.7729 10.9669 16.7729 12.7809V19.9999H21.2577V12.2626C21.2577 8.11777 19.045 6.18923 16.094 6.18923C13.6745 6.18923 12.6122 7.54167 12.022 8.46281H12.0519V6.50575H7.56681C7.62567 7.77195 7.56681 19.9997 7.56681 19.9997L7.56671 20Z" fill="#292929"/>
</svg>
