<svg width="26" height="20" viewBox="0 0 26 20" fill="none" xmlns="http://www.w3.org/2000/svg">
<path d="M25.3345 2.37575C24.4292 2.76628 23.444 3.04735 22.4292 3.15682C23.4828 2.53089 24.2718 1.54202 24.6481 0.375752C23.6595 0.963885 22.5764 1.37629 21.4469 1.59469C20.9749 1.09003 20.404 0.687999 19.7697 0.413643C19.1355 0.139287 18.4516 -0.00151415 17.7606 1.22793e-05C14.9647 1.22793e-05 12.7162 2.26628 12.7162 5.04735C12.7162 5.43788 12.7635 5.82841 12.8404 6.20415C8.65405 5.98522 4.92033 3.98522 2.43808 0.923089C1.98579 1.69562 1.74877 2.57524 1.75169 3.47042C1.75169 5.2219 2.64222 6.76628 4.00021 7.67456C3.19993 7.64305 2.41838 7.42308 1.71914 7.03255V7.09468C1.71914 9.54734 3.45287 11.5799 5.76352 12.0473C5.32967 12.16 4.88336 12.2177 4.43512 12.2189C4.10672 12.2189 3.79607 12.1864 3.48246 12.142C4.12151 14.142 5.98245 15.5947 8.19843 15.642C6.4647 17 4.29311 17.7988 1.93512 17.7988C1.51204 17.7988 1.12151 17.784 0.716187 17.7367C2.95287 19.1716 5.60672 20 8.4647 20C17.7428 20 22.8197 12.3136 22.8197 5.64202C22.8197 5.42309 22.8197 5.20415 22.8049 4.98522C23.7872 4.26628 24.6481 3.37575 25.3345 2.37575Z" fill="#292929"/>
</svg>
